# Blender v2.83.4 OBJ File: ''
# www.blender.org
mtllib box.mtl
o Wooden_Box.001
v 0.249999 0.679320 -0.291605
v -0.249999 0.679320 -0.291605
v -0.249999 0.679320 0.208393
v 0.249999 0.679320 0.208393
v 0.249999 0.179322 0.208393
v -0.249999 0.179322 0.208393
v -0.249999 0.179322 -0.291605
v 0.249999 0.179322 -0.291605
vt 0.254498 0.621732
vt 0.500000 0.376230
vt 0.500000 0.621732
vt 0.745502 0.621732
vt 0.745502 0.376230
vt 0.500000 0.130728
vt 0.745502 0.130728
vt 0.991004 0.376230
vt 0.745502 0.867234
vt 0.008996 0.376230
vt 0.008996 0.621732
vt 0.254498 0.376230
vt 0.991004 0.621732
vt 0.500000 0.867234
vn 0.0000 1.0000 0.0000
vn 0.0000 -0.0000 1.0000
vn -1.0000 0.0000 0.0000
vn 0.0000 -1.0000 -0.0000
vn 1.0000 0.0000 0.0000
vn 0.0000 0.0000 -1.0000
usemtl Wooden_Box_Material.001
s 1
f 1/1/1 3/2/1 4/3/1
f 5/4/2 3/2/2 6/5/2
f 6/5/3 2/6/3 7/7/3
f 7/8/4 5/4/4 6/5/4
f 8/9/5 4/3/5 5/4/5
f 7/10/6 1/1/6 8/11/6
f 1/1/1 2/12/1 3/2/1
f 5/4/2 4/3/2 3/2/2
f 6/5/3 3/2/3 2/6/3
f 7/8/4 8/13/4 5/4/4
f 8/9/5 1/14/5 4/3/5
f 7/10/6 2/12/6 1/1/6
